<svg xmlns="http://www.w3.org/2000/svg" width="109.913" height="135.176" viewBox="0 0 109.913 135.176">
  <defs>
    <style>
      .cls-1, .cls-3 {
        fill: #fff;
      }

      .cls-1 {
        stroke: #0473e1;
        stroke-miterlimit: 10;
      }

      .cls-2 {
        fill: #0473e1;
      }
    </style>
  </defs>
  <g id="CAT" transform="translate(-320.363 -282.083)">
    <path id="background_white_" data-name="background(white)" class="cls-1" d="M414.6,433.683c0,7.755-.226,7.826-4.85,13.845-7.928,10.321-24,19.995-39.458,19.995-15.12,0-30.737-9.026-38.733-18.97-4.945-6.15-5.575-6.825-5.575-14.869,0-21.051,19.837-38.116,44.308-38.116S414.6,412.632,414.6,433.683Z" transform="translate(-2.513 -50.764)"/>
    <path id="background_blue_" data-name="background(blue)" class="cls-2" d="M400.276,322.116c5.978-22.321,30-26.494,30-26.494l-19.092-6.343c-6.97,3.9-14.047,11.281-17.354,26.835a41.114,41.114,0,0,0-25.842-9.43,39.456,39.456,0,0,0-16.243,3.52c7.813-18.206,28.369-21.78,28.369-21.78l-19.091-6.343c-7.929,4.44-16,13.375-18.494,33.728-13.321,10.453-22.165,28.863-22.165,49.833a71.287,71.287,0,0,0,3.269,21.506c.675-9.122,4.808-12.032,9.01-12.55a33.855,33.855,0,0,1-3.226-13.378h77.621a33.812,33.812,0,0,1-3.275,13.475c4.055.742,7.887,3.906,8.416,12.961a71.2,71.2,0,0,0,3.434-22.015c0-17.228-5.97-32.728-15.486-43.508Z" transform="translate(0 0)"/>
    <g id="Cat_s_face" data-name="Cat&apos;s face" transform="translate(329.416 361.222)">
      <circle id="Cat_s_nose" data-name="Cat&apos;s nose" cx="8.749" cy="8.749" r="8.749" transform="translate(30.062 17.688)"/>
      <path id="Cat_s_pupils_white_" data-name="Cat&apos;s pupils(white)" class="cls-1" d="M386.734,425.274H336.743a33.855,33.855,0,0,0,3.226,13.378c3.519,7.278,9.552,12.08,16.406,12.08,9.372,0,17.207-8.976,19.179-20.986,1.971,12.01,9.806,20.986,19.178,20.986,6.823,0,12.832-4.76,16.357-11.983a33.813,33.813,0,0,0,3.275-13.475Z" transform="translate(-336.743 -425.274)"/>
      <path id="Cat_s_eye_left_black_" data-name="Cat&apos;s eye(left_black)" d="M373.445,425.535c0,6.022-2.358,10.9-5.268,10.9s-5.268-4.882-5.268-10.9" transform="translate(-348.448 -425.391)"/>
      <path id="Cat_s_eye_right_black_" data-name="Cat&apos;s eye(right_black)" d="M443.062,425.535c0,6.022-2.358,10.9-5.268,10.9s-5.268-4.882-5.268-10.9" transform="translate(-379.589 -425.391)"/>
      <path id="타원_right_" data-name="타원(right)" class="cls-3" d="M436.245,425.558a2,2,0,0,1-4,0" transform="translate(-379.462 -425.401)"/>
      <path id="타원_left_" data-name="타원(left)" class="cls-3" d="M366.628,425.558a2,2,0,0,1-4,0" transform="translate(-348.321 -425.401)"/>
    </g>
  </g>
</svg>
